# xmcd
#
# Track frame offsets: 
#        150
#        54492
#        108352
#        147965
#        193617
#        214612
#        216812
#        221667
#        226722
#        229495
#
# Disc length: 3121 seconds
#
# Revision: 0
# Processed by: cddbd v1.4PL0 Copyright (c) Steve Scherf et al.
# Submitted via: ExactAudioCopy v0.90b4
#
DISCID=920c2f0a
DTITLE=Ricky Skaggs - The Ricky Skaggs Story (Radio Special)
DYEAR=1900
DGENRE=Country
TTITLE0=Uncle Pen - Don't Get Above Raising - Country Boy
TTITLE1=Thanks Again - Love Can't Ever Get Better Than This
TTITLE2=Crying My Heart Out Over You - Heartbroke
TTITLE3=Highway 40 Blues - Lovin' Only Me
TTITLE4=My Father's Son
TTITLE5=Promo By Ricky Skaggs (Voice Only)
TTITLE6=Music Bed By Ricky Skaggs (Guitar, Up Tempo)
TTITLE7=Music Bed By Ricky Skaggs (Fiddle, Up Tempo)
TTITLE8=Music Bed By Ricky Skaggs (Guitar, Slow Tempo)
TTITLE9=Fischer Meats Commercial
EXTD=
EXTT0=
EXTT1=
EXTT2=
EXTT3=
EXTT4=
EXTT5=
EXTT6=
EXTT7=
EXTT8=
EXTT9=
PLAYORDER=
